<?xml version="1.0" standalone="no"?>
<!DOCTYPE svg PUBLIC "-//W3C//DTD SVG 20010904//EN"
 "http://www.w3.org/TR/2001/REC-SVG-20010904/DTD/svg10.dtd">
<svg version="1.0" xmlns="http://www.w3.org/2000/svg"
 width="499.000000pt" height="499.000000pt" viewBox="0 0 499.000000 499.000000"
 preserveAspectRatio="xMidYMid meet">

<g transform="translate(0.000000,499.000000) scale(0.100000,-0.100000)"
fill="#000000" stroke="none">
<path d="M2265 3590 c-10 -11 -13 -20 -7 -20 6 0 16 9 22 20 6 11 9 20 7 20
-2 0 -12 -9 -22 -20z"/>
<path d="M2301 3568 c9 -19 9 -21 -2 -10 -15 14 -33 17 -25 4 3 -5 -1 -9 -9
-9 -8 0 -15 4 -15 8 0 13 -29 18 -36 7 -5 -7 -2 -8 6 -3 9 5 11 4 6 -4 -4 -6
-12 -9 -17 -5 -5 3 -15 1 -22 -4 -7 -5 -41 -25 -77 -44 -129 -69 -185 -101
-201 -114 -8 -8 -19 -14 -23 -14 -4 0 -35 -16 -69 -36 -86 -51 -123 -72 -187
-107 -30 -17 -67 -38 -82 -49 -14 -10 -28 -18 -31 -18 -17 0 -178 -107 -206
-137 l-35 -37 30 -13 c87 -39 217 -99 279 -128 l70 -33 40 23 c22 12 63 35 90
52 28 16 80 46 117 66 l67 37 51 -30 c28 -17 52 -30 54 -30 2 0 33 -16 68 -36
34 -20 88 -50 118 -67 135 -74 190 -109 185 -117 -3 -5 -43 -32 -89 -59 l-84
-51 -151 86 -151 85 -59 -32 -60 -33 -6 -72 c-4 -40 -4 -77 -1 -82 3 -6 54
-38 114 -71 59 -33 118 -67 132 -75 69 -41 239 -136 243 -136 3 0 39 -21 82
-47 82 -49 93 -50 168 -18 16 7 17 -2 17 -98 l0 -105 -46 -26 -46 -26 -41 24
c-39 22 -60 34 -152 86 -76 44 -107 61 -172 96 -37 20 -75 42 -83 48 -17 12
-47 30 -105 61 -22 12 -58 33 -80 45 -22 13 -51 30 -65 37 -14 8 -47 27 -75
44 -27 16 -58 32 -67 35 -16 6 -18 23 -18 175 l0 169 -97 46 c-54 25 -134 62
-178 81 -44 20 -86 40 -93 46 -7 5 -16 7 -20 3 -4 -4 -8 -289 -10 -634 -3
-694 -3 -694 62 -767 26 -29 128 -93 344 -216 17 -11 48 -28 67 -39 19 -11 52
-30 73 -41 20 -12 49 -29 64 -38 122 -72 471 -272 520 -299 35 -18 76 -32 96
-32 l34 0 -6 217 c-9 298 -14 350 -34 357 -10 3 -39 19 -67 36 -27 16 -72 42
-100 56 -27 15 -65 37 -85 50 l-36 24 -2 225 c-2 157 0 225 8 225 11 0 122
-58 166 -86 23 -16 24 -20 24 -138 l0 -121 57 -35 c32 -18 65 -33 73 -33 9 1
41 16 73 34 l57 33 -1 333 0 334 -40 26 -40 26 53 32 c29 18 68 42 86 54 42
27 44 26 92 -5 l40 -27 0 -442 0 -441 -96 -55 c-53 -30 -121 -67 -151 -84
l-55 -30 6 -170 c13 -353 17 -397 35 -390 17 6 153 82 206 114 17 10 46 27 65
38 57 33 263 154 295 174 17 10 68 40 115 66 47 26 97 55 111 63 14 8 87 50
162 93 94 54 146 90 168 118 61 78 61 76 53 689 -4 305 -9 558 -10 563 -1 4
-2 10 -3 15 -1 4 -6 0 -11 -8 -8 -13 -10 -12 -10 3 0 10 7 17 18 17 14 0 15 2
2 10 -13 9 -13 11 0 20 13 8 12 10 -2 10 -11 0 -18 -8 -18 -20 0 -11 -7 -23
-16 -27 -13 -5 -13 -7 -2 -14 10 -7 10 -9 -2 -9 -18 0 -104 26 -126 38 -14 8
-14 10 0 21 9 8 16 18 16 24 0 6 -11 0 -24 -13 -15 -13 -31 -20 -41 -16 -9 3
-13 2 -10 -4 3 -6 12 -10 20 -10 8 0 16 -3 18 -7 3 -5 -5 -8 -18 -8 -13 0 -21
3 -19 6 6 10 -23 19 -31 11 -4 -4 -10 -7 -13 -7 -4 -1 -31 -12 -59 -25 l-53
-25 0 -175 c0 -171 -1 -175 -23 -186 -12 -6 -89 -50 -172 -99 -228 -134 -284
-165 -291 -165 -2 0 -3 48 -2 107 3 119 -7 102 98 163 19 11 42 25 50 30 8 6
44 27 80 49 l65 38 3 75 3 76 -66 37 c-65 36 -66 36 -93 19 -21 -14 -373 -218
-562 -326 -55 -31 -59 -37 -62 -84 -3 -50 11 -52 -113 16 -84 46 -85 47 -85
95 l0 42 163 95 c89 52 214 125 277 162 130 77 165 97 306 179 l101 57 75 -40
c41 -22 78 -37 82 -35 3 3 4 2 1 -1 -4 -6 32 -29 125 -82 13 -8 75 17 90 37 3
3 19 14 35 23 17 10 29 22 28 27 -2 6 4 8 12 5 8 -4 17 1 21 10 3 9 14 16 23
16 14 0 14 2 1 10 -20 13 -33 12 -24 -1 4 -7 1 -10 -7 -7 -8 3 -13 10 -12 15
1 5 -19 8 -43 7 -46 -3 -182 28 -193 43 -7 10 -76 54 -111 71 -14 6 -32 16
-40 21 -8 5 -41 22 -72 37 -32 15 -58 30 -58 34 0 7 -72 35 -83 32 -5 -1 -16
6 -25 17 -9 11 -42 30 -72 42 -30 13 -68 33 -83 46 -16 13 -35 23 -43 23 -8 0
-14 4 -14 9 0 5 -18 11 -39 15 -21 3 -41 13 -45 21 -3 8 -12 15 -20 15 -9 0
-20 9 -26 20 -8 15 -17 19 -32 14 -14 -4 -28 2 -47 20 -14 14 -46 45 -71 68
-25 23 -44 46 -42 50 1 4 -5 8 -13 8 -13 0 -14 -4 -4 -22z"/>
<path d="M3529 2883 c-13 -16 -12 -17 4 -4 16 13 21 21 13 21 -2 0 -10 -8 -17
-17z"/>
<path d="M3691 2874 c0 -11 3 -14 6 -6 3 7 2 16 -1 19 -3 4 -6 -2 -5 -13z"/>
</g>
</svg>
